<svg width="48" height="48" viewBox="0 0 48 48" fill="none" xmlns="http://www.w3.org/2000/svg">
<g clip-path="url(#clip0_96528_163482)">
<rect width="48" height="48" fill="white" fill-opacity="0.01"/>
<g clip-path="url(#clip1_96528_163482)">
<path d="M46.1137 30.099L42.6048 27.099C42.7709 26.0812 42.8566 25.0419 42.8566 24.0026C42.8566 22.9633 42.7709 21.924 42.6048 20.9062L46.1137 17.9062C46.3784 17.6796 46.5678 17.3778 46.6568 17.041C46.7458 16.7042 46.7301 16.3482 46.6119 16.0205L46.5637 15.8812C45.5977 13.1813 44.1512 10.6785 42.2941 8.49369L42.1976 8.38119C41.9724 8.11629 41.6721 7.92587 41.3364 7.83502C41.0007 7.74416 40.6454 7.75715 40.3173 7.87226L35.9619 9.42047C34.3548 8.10262 32.5601 7.06333 30.6209 6.33476L29.7798 1.78119C29.7163 1.43856 29.5501 1.12334 29.3032 0.877427C29.0564 0.631509 28.7405 0.466529 28.3976 0.404403L28.253 0.377618C25.4619 -0.125954 22.5262 -0.125954 19.7351 0.377618L19.5905 0.404403C19.2476 0.466529 18.9318 0.631509 18.6849 0.877427C18.438 1.12334 18.2718 1.43856 18.2084 1.78119L17.3619 6.35619C15.4381 7.08491 13.6466 8.12365 12.0584 9.43119L7.67085 7.87226C7.34281 7.75624 6.98723 7.74278 6.65136 7.83369C6.31549 7.92459 6.01524 8.11555 5.7905 8.38119L5.69407 8.49369C3.83914 10.6801 2.39287 13.1825 1.42442 15.8812L1.37621 16.0205C1.13514 16.6901 1.33335 17.4401 1.87443 17.9062L5.42621 20.9383C5.26014 21.9455 5.17978 22.974 5.17978 23.9973C5.17978 25.0258 5.26014 26.0544 5.42621 27.0562L1.87443 30.0883C1.60976 30.3149 1.42033 30.6167 1.33134 30.9535C1.24234 31.2904 1.25799 31.6463 1.37621 31.974L1.42442 32.1133C2.39407 34.8133 3.82978 37.3044 5.69407 39.5008L5.7905 39.6133C6.01579 39.8782 6.31605 40.0687 6.65172 40.1595C6.98739 40.2504 7.34271 40.2374 7.67085 40.1223L12.0584 38.5633C13.6548 39.8758 15.4387 40.9151 17.3619 41.6383L18.2084 46.2133C18.2718 46.556 18.438 46.8712 18.6849 47.1171C18.9318 47.363 19.2476 47.528 19.5905 47.5901L19.7351 47.6169C22.5519 48.1232 25.4363 48.1232 28.253 47.6169L28.3976 47.5901C28.7405 47.528 29.0564 47.363 29.3032 47.1171C29.5501 46.8712 29.7163 46.556 29.7798 46.2133L30.6209 41.6598C32.5594 40.9331 34.3641 39.8904 35.9619 38.5741L40.3173 40.1223C40.6453 40.2383 41.0009 40.2517 41.3368 40.1608C41.6726 40.0699 41.9729 39.879 42.1976 39.6133L42.2941 39.5008C44.1584 37.299 45.5941 34.8133 46.5637 32.1133L46.6119 31.974C46.853 31.3151 46.6548 30.5651 46.1137 30.099ZM38.8012 21.5383C38.9351 22.3473 39.0048 23.1776 39.0048 24.008C39.0048 24.8383 38.9351 25.6687 38.8012 26.4776L38.4476 28.6258L42.4494 32.049C41.8428 33.4467 41.077 34.7697 40.1673 35.9919L35.1959 34.2294L33.5137 35.6115C32.2334 36.6615 30.8084 37.4865 29.2655 38.0651L27.2244 38.8312L26.2655 44.0276C24.7525 44.1991 23.2249 44.1991 21.7119 44.0276L20.753 38.8205L18.728 38.0437C17.2012 37.4651 15.7816 36.6401 14.5119 35.5955L12.8298 34.208L7.82621 35.9865C6.9155 34.7598 6.15478 33.4365 5.54407 32.0437L9.58871 28.5883L9.2405 26.4455C9.11193 25.6473 9.04228 24.8223 9.04228 24.008C9.04228 23.1883 9.10657 22.3687 9.2405 21.5705L9.58871 19.4276L5.54407 15.9723C6.14943 14.574 6.9155 13.2562 7.82621 12.0294L12.8298 13.808L14.5119 12.4205C15.7816 11.3758 17.2012 10.5508 18.728 9.97226L20.7584 9.20619L21.7173 3.99905C23.2226 3.82762 24.7601 3.82762 26.2709 3.99905L27.2298 9.19547L29.2709 9.96155C30.8084 10.5401 32.2387 11.3651 33.5191 12.4151L35.2012 13.7973L40.1726 12.0348C41.0834 13.2615 41.8441 14.5848 42.4548 15.9776L38.453 19.4008L38.8012 21.5383ZM23.9994 14.0437C18.7923 14.0437 14.5709 18.2651 14.5709 23.4723C14.5709 28.6794 18.7923 32.9008 23.9994 32.9008C29.2066 32.9008 33.428 28.6794 33.428 23.4723C33.428 18.2651 29.2066 14.0437 23.9994 14.0437ZM28.2423 27.7151C27.6858 28.2732 27.0245 28.7158 26.2963 29.0173C25.5681 29.3189 24.7876 29.4735 23.9994 29.4723C22.3976 29.4723 20.8923 28.8455 19.7566 27.7151C19.1985 27.1586 18.7559 26.4973 18.4544 25.7691C18.1528 25.041 17.9982 24.2604 17.9994 23.4723C17.9994 21.8705 18.6262 20.3651 19.7566 19.2294C20.8923 18.0937 22.3976 17.4723 23.9994 17.4723C25.6012 17.4723 27.1066 18.0937 28.2423 19.2294C28.8004 19.7859 29.2429 20.4472 29.5445 21.1754C29.846 21.9035 30.0007 22.6841 29.9994 23.4723C29.9994 25.074 29.3726 26.5794 28.2423 27.7151Z" fill="black" fill-opacity="0.85"/>
</g>
</g>
<defs>
<clipPath id="clip0_96528_163482">
<rect width="48" height="48" fill="white"/>
</clipPath>
<clipPath id="clip1_96528_163482">
<rect width="48" height="48" fill="white"/>
</clipPath>
</defs>
</svg>
