<svg width="32" height="32" viewBox="0 0 32 32" fill="none" xmlns="http://www.w3.org/2000/svg">
<path d="M31.202 20.0661L28.7896 18.0661C28.9038 17.3875 28.9627 16.6946 28.9627 16.0018C28.9627 15.3089 28.9038 14.6161 28.7896 13.9375L31.202 11.9375C31.384 11.7865 31.5142 11.5853 31.5754 11.3607C31.6366 11.1361 31.6258 10.8988 31.5445 10.6804L31.5114 10.5875C30.8473 8.78759 29.8528 7.11905 28.576 5.6625L28.5097 5.5875C28.3548 5.4109 28.1484 5.28395 27.9176 5.22338C27.6868 5.16282 27.4426 5.17147 27.217 5.24821L24.2227 6.28036C23.1178 5.40179 21.8839 4.70893 20.5507 4.22321L19.9724 1.1875C19.9288 0.959079 19.8145 0.748937 19.6448 0.584992C19.4751 0.421047 19.2579 0.31106 19.0222 0.269643L18.9228 0.251786C17.0039 -0.0839286 14.9856 -0.0839286 13.0667 0.251786L12.9673 0.269643C12.7316 0.31106 12.5144 0.421047 12.3447 0.584992C12.175 0.748937 12.0607 0.959079 12.0171 1.1875L11.4352 4.2375C10.1125 4.72332 8.88086 5.41581 7.78896 6.2875L4.77255 5.24821C4.54702 5.17086 4.30256 5.1619 4.07165 5.2225C3.84074 5.2831 3.63432 5.41041 3.47981 5.5875L3.41351 5.6625C2.13825 7.12009 1.14394 8.78835 0.478132 10.5875L0.444985 10.6804C0.279248 11.1268 0.415521 11.6268 0.787507 11.9375L3.22936 13.9589C3.11519 14.6304 3.05994 15.3161 3.05994 15.9982C3.05994 16.6839 3.11519 17.3696 3.22936 18.0375L0.787507 20.0589C0.60555 20.21 0.47532 20.4112 0.414136 20.6357C0.352952 20.8603 0.363711 21.0976 0.444985 21.3161L0.478132 21.4089C1.14476 23.2089 2.13182 24.8696 3.41351 26.3339L3.47981 26.4089C3.63469 26.5855 3.84113 26.7125 4.0719 26.773C4.30267 26.8336 4.54695 26.825 4.77255 26.7482L7.78896 25.7089C8.8865 26.5839 10.113 27.2768 11.4352 27.7589L12.0171 30.8089C12.0607 31.0374 12.175 31.2475 12.3447 31.4114C12.5144 31.5754 12.7316 31.6854 12.9673 31.7268L13.0667 31.7446C15.0032 32.0822 16.9863 32.0822 18.9228 31.7446L19.0222 31.7268C19.2579 31.6854 19.4751 31.5754 19.6448 31.4114C19.8145 31.2475 19.9288 31.0374 19.9724 30.8089L20.5507 27.7732C21.8834 27.2888 23.1242 26.5937 24.2227 25.7161L27.217 26.7482C27.4425 26.8256 27.687 26.8345 27.9179 26.7739C28.1488 26.7133 28.3552 26.586 28.5097 26.4089L28.576 26.3339C29.8577 24.8661 30.8448 23.2089 31.5114 21.4089L31.5445 21.3161C31.7103 20.8768 31.574 20.3768 31.202 20.0661ZM26.1747 14.3589C26.2667 14.8982 26.3146 15.4518 26.3146 16.0054C26.3146 16.5589 26.2667 17.1125 26.1747 17.6518L25.9316 19.0839L28.6828 21.3661C28.2657 22.2978 27.7393 23.1798 27.1138 23.9946L23.696 22.8196L22.5395 23.7411C21.6593 24.4411 20.6796 24.9911 19.6189 25.3768L18.2156 25.8875L17.5564 29.3518C16.5162 29.4661 15.466 29.4661 14.4258 29.3518L13.7665 25.8804L12.3743 25.3625C11.3247 24.9768 10.3487 24.4268 9.47579 23.7304L8.31932 22.8054L4.87936 23.9911C4.25324 23.1732 3.73025 22.2911 3.31039 21.3625L6.09108 19.0589L5.85168 17.6304C5.76329 17.0982 5.71541 16.5482 5.71541 16.0054C5.71541 15.4589 5.75961 14.9125 5.85168 14.3804L6.09108 12.9518L3.31039 10.6482C3.72657 9.71607 4.25324 8.8375 4.87936 8.01964L8.31932 9.20536L9.47579 8.28036C10.3487 7.58393 11.3247 7.03393 12.3743 6.64821L13.7702 6.1375L14.4295 2.66607C15.4644 2.55179 16.5214 2.55179 17.5601 2.66607L18.2193 6.13036L19.6226 6.64107C20.6796 7.02679 21.663 7.57679 22.5432 8.27679L23.6997 9.19821L27.1175 8.02321C27.7436 8.84107 28.2666 9.72322 28.6865 10.6518L25.9353 12.9339L26.1747 14.3589ZM15.9984 9.3625C12.4185 9.3625 9.5163 12.1768 9.5163 15.6482C9.5163 19.1196 12.4185 21.9339 15.9984 21.9339C19.5784 21.9339 22.4806 19.1196 22.4806 15.6482C22.4806 12.1768 19.5784 9.3625 15.9984 9.3625ZM18.9154 18.4768C18.5328 18.8488 18.0781 19.1439 17.5775 19.3449C17.0769 19.546 16.5403 19.649 15.9984 19.6482C14.8972 19.6482 13.8623 19.2304 13.0815 18.4768C12.6978 18.1058 12.3935 17.6649 12.1862 17.1795C11.9789 16.694 11.8726 16.1736 11.8734 15.6482C11.8734 14.5804 12.3044 13.5768 13.0815 12.8196C13.8623 12.0625 14.8972 11.6482 15.9984 11.6482C17.0997 11.6482 18.1346 12.0625 18.9154 12.8196C19.2991 13.1906 19.6033 13.6315 19.8107 14.117C20.018 14.6024 20.1243 15.1228 20.1234 15.6482C20.1234 16.7161 19.6925 17.7196 18.9154 18.4768Z" fill="white"/>
</svg>
